# xmcd CD database file
#
# Track frame offsets:
#	165
#	15820
#	34135
#	51900
#	69877
#	89475
#	106255
#	127510
#	146775
#	163330
#	186915
#	206197
#	227957
#
# Disc length: 3232 seconds
#
# Revision: 3
# Processed by: cddbd v1.5.2PL0 Copyright (c) Steve Scherf et al.
# Submitted via: CDex 1.51
#
DISCID=b00c9e0d
DTITLE=Dr. John - Dr. John Plays Mac Rebennack
DYEAR=1981
DGENRE=Jazz
TTITLE0=Dorothy
TTITLE1=Mac's Boogie
TTITLE2=Memories of Professor Longhair
TTITLE3=The Nearness of You
TTITLE4=Delicado
TTITLE5=Silent Night
TTITLE6=Dance a La Negres
TTITLE7=Wade in the Water
TTITLE8=Honey Dripper
TTITLE9=Big Mac
TTITLE10=New Island Midnight
TTITLE11=Saints
TTITLE12=Pinetop
EXTD=YEAR: 1981
EXTT0=
EXTT1=
EXTT2=
EXTT3=
EXTT4=
EXTT5=
EXTT6=
EXTT7=
EXTT8=
EXTT9=
EXTT10=
EXTT11=
EXTT12=
PLAYORDER=
